<?xml version="1.0" encoding="utf-8"?>
<!-- Generator: Adobe Illustrator 17.1.0, SVG Export Plug-In . SVG Version: 6.00 Build 0)  -->
<!DOCTYPE svg PUBLIC "-//W3C//DTD SVG 1.1//EN" "http://www.w3.org/Graphics/SVG/1.1/DTD/svg11.dtd">
<svg version="1.1" id="Layer_1" xmlns="http://www.w3.org/2000/svg" xmlns:xlink="http://www.w3.org/1999/xlink" x="0px" y="0px"
	 viewBox="0 0 2000 1430" enable-background="new 0 0 2000 1430" xml:space="preserve">
<g>
	
		<linearGradient id="SVGID_1_" gradientUnits="userSpaceOnUse" x1="0.1" y1="715" x2="2000.1" y2="715" gradientTransform="matrix(1 0 0 -1 0 1430)">
		<stop  offset="0" style="stop-color:#6B6B6B"/>
		<stop  offset="0.5176" style="stop-color:#9A9999"/>
		<stop  offset="0.7149" style="stop-color:#878686"/>
		<stop  offset="1" style="stop-color:#6B6B6B"/>
	</linearGradient>
	<rect x="0.1" y="-0.4" fill="url(#SVGID_1_)" width="2000" height="1430.8"/>
	<g>
		<g>
			<rect x="1543.8" y="1.8" fill="#9A9999" width="64.5" height="64.5"/>
			<rect x="1621.2" y="1.8" fill="#9A9999" width="64.5" height="64.5"/>
			<rect x="1698.6" y="1.8" fill="#9A9999" width="64.5" height="64.5"/>
			<rect x="1775.9" y="1.8" fill="#9A9999" width="64.5" height="64.5"/>
		</g>
		<g>
			<rect x="1543.8" y="82" fill="#9A9999" width="64.5" height="64.5"/>
			<rect x="1621.2" y="82" fill="#9A9999" width="64.5" height="64.5"/>
			<rect x="1698.6" y="82" fill="#9A9999" width="64.5" height="64.5"/>
			<rect x="1775.9" y="82" fill="#9A9999" width="64.5" height="64.5"/>
		</g>
		<g>
			<rect x="1543.8" y="162.1" fill="#9A9999" width="64.5" height="64.5"/>
			<rect x="1621.2" y="162.1" fill="#9A9999" width="64.5" height="64.5"/>
			<rect x="1698.6" y="162.1" fill="#9A9999" width="64.5" height="64.5"/>
			<rect x="1775.9" y="162.1" fill="#9A9999" width="64.5" height="64.5"/>
		</g>
		<g>
			<rect x="1543.8" y="242.3" fill="#9A9999" width="64.5" height="64.5"/>
			<rect x="1621.2" y="242.3" fill="#9A9999" width="64.5" height="64.5"/>
			<rect x="1698.6" y="242.3" fill="#9A9999" width="64.5" height="64.5"/>
			<rect x="1775.9" y="242.3" fill="#9A9999" width="64.5" height="64.5"/>
		</g>
		<g>
			<rect x="1543.8" y="322.4" fill="#9A9999" width="64.5" height="64.5"/>
			<rect x="1621.2" y="322.4" fill="#9A9999" width="64.5" height="64.5"/>
			<rect x="1698.6" y="322.4" fill="#9A9999" width="64.5" height="64.5"/>
			<rect x="1775.9" y="322.4" fill="#9A9999" width="64.5" height="64.5"/>
		</g>
		<g>
			<rect x="1543.8" y="402.6" fill="#9A9999" width="64.5" height="64.5"/>
			<rect x="1621.2" y="402.6" fill="#9A9999" width="64.5" height="64.5"/>
			<rect x="1698.6" y="402.6" fill="#9A9999" width="64.5" height="64.5"/>
			<rect x="1775.9" y="402.6" fill="#9A9999" width="64.5" height="64.5"/>
		</g>
		<g>
			<rect x="1543.8" y="482.7" fill="#9A9999" width="64.5" height="64.5"/>
			<rect x="1621.2" y="482.7" fill="#9A9999" width="64.5" height="64.5"/>
			<rect x="1698.6" y="482.7" fill="#9A9999" width="64.5" height="64.5"/>
			<rect x="1775.9" y="482.7" fill="#9A9999" width="64.5" height="64.5"/>
		</g>
		<g>
			<rect x="1543.8" y="562.9" fill="#9A9999" width="64.5" height="64.5"/>
			<rect x="1621.2" y="562.9" fill="#9A9999" width="64.5" height="64.5"/>
			<rect x="1698.6" y="562.9" fill="#9A9999" width="64.5" height="64.5"/>
			<rect x="1775.9" y="562.9" fill="#9A9999" width="64.5" height="64.5"/>
		</g>
		<g>
			<rect x="1543.8" y="643" fill="#9A9999" width="64.5" height="64.5"/>
			<rect x="1621.2" y="643" fill="#9A9999" width="64.5" height="64.5"/>
			<rect x="1698.6" y="643" fill="#9A9999" width="64.5" height="64.5"/>
			<rect x="1775.9" y="643" fill="#9A9999" width="64.5" height="64.5"/>
		</g>
		<g>
			<rect x="1543.8" y="723.2" fill="#9A9999" width="64.5" height="64.5"/>
			<rect x="1621.2" y="723.2" fill="#9A9999" width="64.5" height="64.5"/>
			<rect x="1698.6" y="723.2" fill="#9A9999" width="64.5" height="64.5"/>
			<rect x="1775.9" y="723.2" fill="#9A9999" width="64.5" height="64.5"/>
		</g>
		<g>
			<rect x="1543.8" y="803.3" fill="#9A9999" width="64.5" height="64.5"/>
			<rect x="1621.2" y="803.3" fill="#9A9999" width="64.5" height="64.5"/>
			<rect x="1698.6" y="803.3" fill="#9A9999" width="64.5" height="64.5"/>
			<rect x="1775.9" y="803.3" fill="#9A9999" width="64.5" height="64.5"/>
		</g>
		<g>
			<rect x="1543.8" y="883.5" fill="#9A9999" width="64.5" height="64.5"/>
			<rect x="1621.2" y="883.5" fill="#9A9999" width="64.5" height="64.5"/>
			<rect x="1698.6" y="883.5" fill="#9A9999" width="64.5" height="64.5"/>
			<rect x="1775.9" y="883.5" fill="#9A9999" width="64.5" height="64.5"/>
		</g>
		<g>
			<rect x="1543.8" y="963.6" fill="#9A9999" width="64.5" height="64.5"/>
			<rect x="1621.2" y="963.6" fill="#9A9999" width="64.5" height="64.5"/>
			<rect x="1698.6" y="963.6" fill="#9A9999" width="64.5" height="64.5"/>
			<rect x="1775.9" y="963.6" fill="#9A9999" width="64.5" height="64.5"/>
		</g>
		<g>
			<rect x="1543.8" y="1044.1" fill="#9A9999" width="64.5" height="64.5"/>
			<rect x="1621.2" y="1044.1" fill="#9A9999" width="64.5" height="64.5"/>
			<rect x="1698.6" y="1044.1" fill="#9A9999" width="64.5" height="64.5"/>
			<rect x="1775.9" y="1044.1" fill="#9A9999" width="64.5" height="64.5"/>
		</g>
		<g>
			<rect x="1543.8" y="1124.5" fill="#9A9999" width="64.5" height="64.5"/>
			<rect x="1621.2" y="1124.5" fill="#9A9999" width="64.5" height="64.5"/>
			<rect x="1698.6" y="1124.5" fill="#9A9999" width="64.5" height="64.5"/>
			<rect x="1775.9" y="1124.5" fill="#9A9999" width="64.5" height="64.5"/>
		</g>
		<g>
			<rect x="1543.8" y="1205" fill="#9A9999" width="64.5" height="64.5"/>
			<rect x="1621.2" y="1205" fill="#9A9999" width="64.5" height="64.5"/>
			<rect x="1698.6" y="1205" fill="#9A9999" width="64.5" height="64.5"/>
			<rect x="1775.9" y="1205" fill="#9A9999" width="64.5" height="64.5"/>
		</g>
		<g>
			<rect x="1543.8" y="1285.4" fill="#9A9999" width="64.5" height="64.5"/>
			<rect x="1621.2" y="1285.4" fill="#9A9999" width="64.5" height="64.5"/>
			<rect x="1698.6" y="1285.4" fill="#9A9999" width="64.5" height="64.5"/>
			<rect x="1775.9" y="1285.4" fill="#9A9999" width="64.5" height="64.5"/>
		</g>
		<g>
			<rect x="1543.8" y="1365.8" fill="#9A9999" width="64.5" height="64.5"/>
			<rect x="1621.2" y="1365.8" fill="#9A9999" width="64.5" height="64.5"/>
			<rect x="1698.6" y="1365.8" fill="#9A9999" width="64.5" height="64.5"/>
			<rect x="1775.9" y="1365.8" fill="#9A9999" width="64.5" height="64.5"/>
		</g>
	</g>
	<g>
		<g>
			<path fill="#9A9999" d="M403.3,1010.7c-47-90.3-71.8-192.2-71.8-294.6c0-352.7,286.9-639.6,639.6-639.6
				c143.7,0,279.4,46.5,392.5,134.6l-99.4,127.8c-84.4-65.7-185.8-100.5-293.1-100.5c-263.4,0-477.7,214.3-477.7,477.7
				c0,77.6,18,151.6,53.5,219.9L403.3,1010.7z"/>
		</g>
		<g>
			<path fill="#9A9999" d="M971.2,1355.7c-131.5,0-257.9-39.6-365.5-114.6l92.6-132.8c80.3,56,174.7,85.5,272.9,85.5
				c263.4,0,477.7-214.3,477.7-477.7c0-33.7-3.5-67.4-10.5-100.1l158.4-33.7c9.3,43.8,14,88.8,14,133.9
				C1610.8,1068.8,1323.9,1355.7,971.2,1355.7z"/>
		</g>
		<g>
			<path fill="#9A9999" d="M971.2,1174.8c-252.9,0-458.7-205.8-458.7-458.7c0-98.6,30.8-192.5,89-271.6l53.7,39.5
				c-49.7,67.6-76.1,147.9-76.1,232.1c0,216.2,175.8,392,392,392c100.1,0,195.3-37.7,268.2-106.1l45.6,48.6
				C1199.7,1130.7,1088.2,1174.8,971.2,1174.8z"/>
		</g>
		<g>
			<path fill="#9A9999" d="M1333.9,996.9l-52.7-40.9c53.7-69.2,82-152.2,82-240c0-216.2-175.9-392-392-392
				c-46.9,0-92.8,8.2-136.4,24.4L811.6,286c51-18.9,104.7-28.6,159.6-28.6c252.9,0,458.7,205.8,458.7,458.7
				C1429.9,818.8,1396.7,916,1333.9,996.9z"/>
		</g>
		<g>
			<path fill="#9A9999" d="M726.9,1355C464,1254.4,287.4,997.6,287.4,716.1c0-260.4,151.5-502,385.9-615.7l12.5,25.7
				C461.1,235.1,316,466.6,316,716.1c0,269.8,169.3,515.8,421.2,612.2L726.9,1355z"/>
		</g>
		<g>
			<path fill="#9A9999" d="M971.2,1399.9c-59.1,0-117.7-7.6-174.3-22.4l7.3-27.6c54.2,14.2,110.4,21.5,167,21.5
				c154.9,0,305.1-55,423.2-154.9l18.5,21.8C1289.6,1342.4,1132.8,1399.9,971.2,1399.9z"/>
		</g>
		<g>
			<path fill="#9A9999" d="M1503.3,1145.6l-22.2-18c93.7-116,145.3-262.1,145.3-411.6c0-361.3-293.9-655.2-655.2-655.2
				c-52.8,0-105.4,6.3-156.3,18.8l-6.8-27.8c53.1-13,108-19.6,163.1-19.6c377,0,683.8,306.8,683.8,683.8
				C1655,872.1,1601.1,1024.6,1503.3,1145.6z"/>
		</g>
		<g>
			<path fill="#9A9999" d="M971.2,1096.7c-209.9,0-380.6-170.7-380.6-380.6s170.7-380.6,380.6-380.6s380.6,170.7,380.6,380.6
				C1351.8,926,1181,1096.7,971.2,1096.7z M971.2,354.6c-199.3,0-361.5,162.2-361.5,361.5s162.2,361.5,361.5,361.5
				s361.5-162.2,361.5-361.5S1170.5,354.6,971.2,354.6z"/>
		</g>
		<g>
			<path fill="#9A9999" d="M971.2,1067c-2.2,0-4.4,0-6.6-0.1l0.3-19c9.2,0.1,18.7-0.1,27.8-0.6l1.2,19
				C986.5,1066.7,978.8,1066.9,971.2,1067z M935.3,1065.1c-9.7-1-19.4-2.4-29.1-4.2l3.5-18.7c9.1,1.7,18.3,3.1,27.5,4L935.3,1065.1z
				 M1023.1,1063.1l-2.8-18.8c9.1-1.4,18.3-3.1,27.3-5.2l4.4,18.5C1042.4,1059.9,1032.7,1061.7,1023.1,1063.1z M877.6,1054.3
				c-9.4-2.6-18.8-5.6-27.9-9l6.6-17.9c8.6,3.2,17.5,6,26.4,8.5L877.6,1054.3z M1080.2,1049.7l-5.9-18.1c8.7-2.8,17.4-6.1,26-9.7
				l7.4,17.5C1098.6,1043.2,1089.4,1046.7,1080.2,1049.7z M822.6,1034c-8.9-4.1-17.6-8.7-26-13.6l9.5-16.5c8,4.6,16.3,8.9,24.6,12.8
				L822.6,1034z M1134.2,1026.9l-8.9-16.9c8.2-4.3,16.2-9,24-13.9l10.2,16.1C1151.3,1017.4,1142.8,1022.4,1134.2,1026.9z
				 M771.7,1004.8c-8-5.6-15.9-11.5-23.4-17.7l12.1-14.7c7.1,5.9,14.6,11.5,22.2,16.8L771.7,1004.8z M1183.6,995.4l-11.6-15.1
				c7.3-5.6,14.5-11.6,21.4-17.7l12.8,14.1C1199,983.1,1191.4,989.4,1183.6,995.4z M726.4,967.5c-7-6.8-13.7-14-20.2-21.3l14.4-12.5
				c6.1,7,12.5,13.8,19.1,20.2L726.4,967.5z M1227.1,956.1l-13.9-13c6.3-6.7,12.4-13.8,18.1-21l14.9,11.8
				C1240.2,941.5,1233.8,949,1227.1,956.1z M687.9,923.2c-5.8-7.9-11.3-16.1-16.4-24.4l16.3-9.9c4.8,7.8,10,15.6,15.5,23
				L687.9,923.2z M1263.6,910.1l-15.9-10.5c5.1-7.7,10-15.7,14.4-23.8l16.7,9.2C1274.1,893.5,1269,902,1263.6,910.1z M657.4,873.2
				c-4.4-8.7-8.4-17.7-12-26.8l17.7-7.1c3.4,8.5,7.2,17,11.4,25.3L657.4,873.2z M1291.9,858.7l-17.4-7.7c3.7-8.4,7.2-17.1,10.2-25.8
				l18,6.3C1299.5,840.6,1295.8,849.8,1291.9,858.7z M635.6,818.7c-2.8-9.3-5.3-18.9-7.4-28.4l18.6-4c1.9,9,4.3,18,7,26.9
				L635.6,818.7z M1311.1,803.2l-18.5-4.7c2.3-8.9,4.2-18,5.7-27.1l18.8,3.1C1315.6,784.2,1313.6,793.8,1311.1,803.2z M623.2,761.4
				c-1.2-9.6-2.1-19.5-2.5-29.2l19-0.9c0.4,9.2,1.2,18.5,2.4,27.6L623.2,761.4z M1320.9,745.4l-19-1.6c0.8-9.2,1.1-18.5,1.1-27.7h19
				C1322,725.8,1321.6,735.7,1320.9,745.4z M1303,713.5c-0.1-9.2-0.5-18.6-1.4-27.7l19-1.7c0.9,9.7,1.4,19.6,1.5,29.3L1303,713.5z
				 M639.6,703.5l-19-0.7c0.4-9.7,1.1-19.6,2.3-29.2l18.9,2.3C640.7,685,639.9,694.3,639.6,703.5z M1298,658.2
				c-1.6-9.1-3.6-18.2-6-27.1l18.4-4.9c2.5,9.4,4.6,19,6.3,28.7L1298,658.2z M646.3,648.5l-18.7-3.9c2-9.5,4.4-19.1,7.2-28.5
				l18.2,5.4C650.4,630.4,648.1,639.4,646.3,648.5z M1283.8,604.6c-3.1-8.6-6.6-17.3-10.4-25.7l17.3-7.9c4.1,8.9,7.8,18.1,11,27.2
				L1283.8,604.6z M662,595.3l-17.7-6.9c3.6-9.1,7.5-18.1,11.8-26.9l17.1,8.4C669.2,578.2,665.4,586.7,662,595.3z M1260.9,554.1
				c-4.5-8-9.4-15.9-14.6-23.6l15.8-10.7c5.5,8.1,10.7,16.5,15.4,25L1260.9,554.1z M686.5,545.5l-16.3-9.8
				c5-8.4,10.5-16.6,16.2-24.5l15.4,11.1C696.4,529.8,691.3,537.6,686.5,545.5z M1229.8,508.2c-5.8-7.2-11.9-14.2-18.3-20.9
				l13.8-13.2c6.7,7.1,13.2,14.5,19.3,22.1L1229.8,508.2z M719,500.5l-14.5-12.4c6.3-7.4,13-14.6,20-21.5l13.4,13.5
				C731.3,486.7,724.9,493.5,719,500.5z M1191.5,468c-6.9-6.1-14.2-12.1-21.5-17.6l11.4-15.2c7.8,5.8,15.4,12.1,22.7,18.6
				L1191.5,468z M758.4,461.5l-12.2-14.6c7.5-6.3,15.3-12.3,23.3-17.9l11,15.6C772.9,449.9,765.5,455.6,758.4,461.5z M1147.1,434.7
				c-7.8-4.9-16-9.5-24.1-13.7l8.7-16.9c8.6,4.4,17.2,9.3,25.5,14.5L1147.1,434.7z M803.8,429.6l-9.6-16.4
				c8.4-4.9,17.1-9.6,25.9-13.7l8.2,17.2C820,420.5,811.7,424.9,803.8,429.6z M1097.8,409.3c-8.5-3.5-17.3-6.7-26.1-9.5l5.8-18.2
				c9.3,3,18.6,6.3,27.6,10.1L1097.8,409.3z M853.8,405.7l-6.7-17.8c9.1-3.4,18.5-6.5,27.9-9.2l5.2,18.3
				C871.3,399.5,862.4,402.4,853.8,405.7z M1044.9,392.5c-9-2-18.2-3.7-27.3-5l2.6-18.9c9.7,1.3,19.4,3.1,28.9,5.3L1044.9,392.5z
				 M907.1,390.5l-3.6-18.7c9.5-1.9,19.3-3.3,29-4.4l2.1,18.9C925.4,387.3,916.1,388.7,907.1,390.5z M990,384.8
				c-9.2-0.5-18.5-0.7-27.8-0.4l-0.5-19c9.8-0.3,19.6-0.1,29.3,0.4L990,384.8z"/>
		</g>
		<g>
			<path fill="#9A9999" d="M971.2,1008.4c-161.2,0-292.3-131.1-292.3-292.3S810,423.8,971.2,423.8s292.3,131.1,292.3,292.3
				S1132.4,1008.4,971.2,1008.4z M971.2,433.3c-155.9,0-282.8,126.9-282.8,282.8s126.9,282.8,282.8,282.8S1254,872,1254,716.1
				C1253.9,560.2,1127.1,433.3,971.2,433.3z"/>
		</g>
	</g>
	<g>
		<g>
			<path fill="#9A9999" d="M148.7,122.6c31.4-14.6,53.8-25.1,53.8-25.1v19.3c0,0-22.4,10.4-53.8,25.1V122.6z"/>
			<path fill="#9A9999" d="M148.7,164.5c31.4-14.7,53.8-25.1,53.8-25.1v19.3c0,0-22.4,10.4-53.8,25.1V164.5z"/>
			<path fill="#9A9999" d="M148.7,206.4c31.4-14.6,53.8-25.1,53.8-25.1v19.3c0,0-22.4,10.4-53.8,25.1V206.4z"/>
			<path fill="#9A9999" d="M148.7,248.4c31.4-14.7,53.8-25.1,53.8-25.1v19.3c0,0-22.4,10.4-53.8,25.1V248.4z"/>
			<path fill="#9A9999" d="M148.7,290.3c31.4-14.6,53.8-25.1,53.8-25.1v19.3c0,0-22.4,10.4-53.8,25.1V290.3z"/>
			<path fill="#9A9999" d="M148.7,332.3c31.4-14.7,53.8-25.1,53.8-25.1v19.3c0,0-22.4,10.4-53.8,25.1V332.3z"/>
			<path fill="#9A9999" d="M148.7,374.2c31.4-14.6,53.8-25.1,53.8-25.1v19.3c0,0-22.4,10.4-53.8,25.1V374.2z"/>
			<path fill="#9A9999" d="M148.7,416.1c31.4-14.7,53.8-25.1,53.8-25.1v19.3c0,0-22.4,10.4-53.8,25.1V416.1z"/>
			<path fill="#9A9999" d="M148.7,458.1c31.4-14.6,53.8-25.1,53.8-25.1v19.3c0,0-22.4,10.4-53.8,25.1V458.1z"/>
			<path fill="#9A9999" d="M148.7,500c31.4-14.7,53.8-25.1,53.8-25.1v19.3c0,0-22.4,10.4-53.8,25.1V500z"/>
			<path fill="#9A9999" d="M148.7,541.9c31.4-14.6,53.8-25.1,53.8-25.1v19.3c0,0-22.4,10.4-53.8,25.1V541.9z"/>
			<path fill="#9A9999" d="M148.7,583.9c31.4-14.7,53.8-25.1,53.8-25.1v19.3c0,0-22.4,10.4-53.8,25.1V583.9z"/>
			<path fill="#9A9999" d="M148.7,625.8c31.4-14.6,53.8-25.1,53.8-25.1V620c0,0-22.4,10.4-53.8,25.1V625.8z"/>
			<path fill="#9A9999" d="M148.7,667.8c31.4-14.7,53.8-25.1,53.8-25.1V662c0,0-22.4,10.4-53.8,25.1V667.8z"/>
			<path fill="#9A9999" d="M148.7,709.7c31.4-14.6,53.8-25.1,53.8-25.1v19.3c0,0-22.4,10.4-53.8,25.1V709.7z"/>
			<path fill="#9A9999" d="M148.7,751.6c31.4-14.7,53.8-25.1,53.8-25.1v19.3c0,0-22.4,10.4-53.8,25.1V751.6z"/>
			<path fill="#9A9999" d="M148.7,793.5c31.4-14.6,53.8-25.1,53.8-25.1v19.3c0,0-22.4,10.4-53.8,25.1V793.5z"/>
			<path fill="#9A9999" d="M148.7,835.5c31.4-14.6,53.8-25.1,53.8-25.1v19.3c0,0-22.4,10.4-53.8,25.1V835.5z"/>
			<path fill="#9A9999" d="M148.7,877.4c31.4-14.7,53.8-25.1,53.8-25.1v19.3c0,0-22.4,10.4-53.8,25.1V877.4z"/>
			<path fill="#9A9999" d="M148.7,919.3c31.4-14.6,53.8-25.1,53.8-25.1v19.3c0,0-22.4,10.4-53.8,25.1V919.3z"/>
			<path fill="#9A9999" d="M148.7,961.3c31.4-14.7,53.8-25.1,53.8-25.1v19.3c0,0-22.4,10.4-53.8,25.1V961.3z"/>
		</g>
	</g>
	<g>
		<g>
			<path fill="#9A9999" d="M51.6,219.7c31.4-14.7,53.8-25.1,53.8-25.1v19.3c0,0-22.3,10.4-53.8,25.1C51.6,239,51.6,219.7,51.6,219.7
				z"/>
			<path fill="#9A9999" d="M51.6,261.6c31.4-14.6,53.8-25.1,53.8-25.1v19.3c0,0-22.3,10.4-53.8,25.1
				C51.6,280.9,51.6,261.6,51.6,261.6z"/>
			<path fill="#9A9999" d="M51.6,303.6c31.4-14.7,53.8-25.1,53.8-25.1v19.3c0,0-22.3,10.4-53.8,25.1
				C51.6,322.9,51.6,303.6,51.6,303.6z"/>
			<path fill="#9A9999" d="M51.6,345.5c31.4-14.6,53.8-25.1,53.8-25.1v19.3c0,0-22.3,10.4-53.8,25.1
				C51.6,364.8,51.6,345.5,51.6,345.5z"/>
			<path fill="#9A9999" d="M51.6,387.4c31.4-14.7,53.8-25.1,53.8-25.1v19.3c0,0-22.3,10.4-53.8,25.1
				C51.6,406.7,51.6,387.4,51.6,387.4z"/>
			<path fill="#9A9999" d="M51.6,429.4c31.4-14.6,53.8-25.1,53.8-25.1v19.3c0,0-22.3,10.4-53.8,25.1
				C51.6,448.7,51.6,429.4,51.6,429.4z"/>
			<path fill="#9A9999" d="M51.6,471.3c31.4-14.7,53.8-25.1,53.8-25.1v19.3c0,0-22.3,10.4-53.8,25.1
				C51.6,490.6,51.6,471.3,51.6,471.3z"/>
			<path fill="#9A9999" d="M51.6,513.2c31.4-14.6,53.8-25.1,53.8-25.1v19.3c0,0-22.3,10.4-53.8,25.1
				C51.6,532.5,51.6,513.2,51.6,513.2z"/>
			<path fill="#9A9999" d="M51.6,555.2c31.4-14.7,53.8-25.1,53.8-25.1v19.3c0,0-22.3,10.4-53.8,25.1
				C51.6,574.5,51.6,555.2,51.6,555.2z"/>
			<path fill="#9A9999" d="M51.6,597.1C83,582.5,105.3,572,105.3,572v19.3c0,0-22.3,10.4-53.8,25.1L51.6,597.1L51.6,597.1z"/>
			<path fill="#9A9999" d="M51.6,639c31.4-14.6,53.7-25,53.7-25v19.3c0,0-22.3,10.4-53.8,25.1L51.6,639L51.6,639z"/>
			<path fill="#9A9999" d="M51.6,681c31.4-14.6,53.8-25.1,53.8-25.1v19.3c0,0-22.3,10.4-53.8,25.1C51.6,700.3,51.6,681,51.6,681z"/>
			<path fill="#9A9999" d="M51.6,722.9c31.4-14.7,53.8-25.1,53.8-25.1v19.3c0,0-22.3,10.4-53.8,25.1
				C51.6,742.2,51.6,722.9,51.6,722.9z"/>
			<path fill="#9A9999" d="M51.6,764.9c31.4-14.6,53.8-25.1,53.8-25.1v19.3c0,0-22.3,10.4-53.8,25.1
				C51.6,784.2,51.6,764.9,51.6,764.9z"/>
			<path fill="#9A9999" d="M51.6,806.8c31.4-14.7,53.8-25.1,53.8-25.1V801c0,0-22.3,10.4-53.8,25.1
				C51.6,826.1,51.6,806.8,51.6,806.8z"/>
			<path fill="#9A9999" d="M51.6,848.7c31.4-14.6,53.8-25.1,53.8-25.1V843c0,0-22.3,10.4-53.8,25.1
				C51.6,868.1,51.6,848.7,51.6,848.7z"/>
			<path fill="#9A9999" d="M51.6,890.7c31.4-14.7,53.8-25.1,53.8-25.1v19.3c0,0-22.3,10.4-53.8,25.1C51.6,910,51.6,890.7,51.6,890.7
				z"/>
			<path fill="#9A9999" d="M51.6,932.6c31.4-14.6,53.8-25.1,53.8-25.1v19.3c0,0-22.3,10.4-53.8,25.1
				C51.6,951.9,51.6,932.6,51.6,932.6z"/>
			<path fill="#9A9999" d="M51.6,974.5c31.4-14.7,53.8-25.1,53.8-25.1v19.3c0,0-22.3,10.4-53.8,25.1
				C51.6,993.8,51.6,974.5,51.6,974.5z"/>
			<path fill="#9A9999" d="M51.6,1016.5c31.4-14.6,53.8-25.1,53.8-25.1v19.3c0,0-22.3,10.4-53.8,25.1
				C51.6,1035.8,51.6,1016.5,51.6,1016.5z"/>
			<path fill="#9A9999" d="M51.6,1058.4c31.4-14.7,53.8-25.1,53.8-25.1v19.3c0,0-22.3,10.4-53.8,25.1
				C51.6,1077.7,51.6,1058.4,51.6,1058.4z"/>
		</g>
	</g>
	<g>
		<path fill="#9A9999" d="M132,1429.3h-9.5v-5.8h9.5V1429.3z M132,1414h-9.5v-9.5h9.5V1414z M132,1395h-9.5v-9.5h9.5V1395z
			 M132,1376h-9.5v-9.5h9.5V1376z M132,1357.1h-9.5v-9.5h9.5V1357.1z M132,1338.1h-9.5v-9.5h9.5V1338.1z M132,1319.1h-9.5v-9.5h9.5
			V1319.1z M132,1300.2h-9.5v-9.5h9.5V1300.2z M132,1281.2h-9.5v-9.5h9.5V1281.2z M132,1262.2h-9.5v-9.5h9.5V1262.2z M132,1243.3
			h-9.5v-9.5h9.5V1243.3z M132,1224.3h-9.5v-9.5h9.5V1224.3z M132,1205.3h-9.5v-9.5h9.5V1205.3z M132,1186.3h-9.5v-9.5h9.5V1186.3z
			 M132,1167.4h-9.5v-9.5h9.5V1167.4z M132,1148.4h-9.5v-9.5h9.5V1148.4z M132,1129.4h-9.5v-9.5h9.5V1129.4z M132,1110.5h-9.5v-9.5
			h9.5V1110.5z M132,1091.5h-9.5v-9.5h9.5V1091.5z M132,1072.5h-9.5v-9.5h9.5V1072.5z M132,1053.5h-9.5v-9.5h9.5V1053.5z
			 M132,1034.6h-9.5v-9.5h9.5V1034.6z M132,1015.6h-9.5v-9.5h9.5V1015.6z M132,996.6h-9.5v-9.5h9.5V996.6z M132,977.7h-9.5v-9.5h9.5
			V977.7z M132,958.7h-9.5v-9.5h9.5V958.7z M132,939.7h-9.5v-9.5h9.5V939.7z M132,920.7h-9.5v-9.5h9.5V920.7z M132,901.8h-9.5v-9.5
			h9.5V901.8z M132,882.8h-9.5v-9.5h9.5V882.8z M132,863.8h-9.5v-9.5h9.5V863.8z M132,844.9h-9.5v-9.5h9.5V844.9z M132,825.9h-9.5
			v-9.5h9.5V825.9z M132,806.9h-9.5v-9.5h9.5V806.9z M132,788h-9.5v-9.5h9.5V788z M132,769h-9.5v-9.5h9.5V769z M132,750h-9.5v-9.5
			h9.5V750z M132,731.1h-9.5v-9.5h9.5V731.1z M132,712.1h-9.5v-9.5h9.5V712.1z M132,693.1h-9.5v-9.5h9.5V693.1z M132,674.1h-9.5
			v-9.5h9.5V674.1z M132,655.2h-9.5v-9.5h9.5V655.2z M132,636.2h-9.5v-9.5h9.5V636.2z M132,617.2h-9.5v-9.5h9.5V617.2z M132,598.3
			h-9.5v-9.5h9.5V598.3z M132,579.3h-9.5v-9.5h9.5V579.3z M132,560.3h-9.5v-9.5h9.5V560.3z M132,541.4h-9.5v-9.5h9.5V541.4z
			 M132,522.4h-9.5v-9.5h9.5V522.4z M132,503.4h-9.5v-9.5h9.5V503.4z M132,484.4h-9.5v-9.5h9.5V484.4z M132,465.5h-9.5V456h9.5
			V465.5z M132,446.5h-9.5V437h9.5V446.5z M132,427.5h-9.5V418h9.5V427.5z M132,408.6h-9.5v-9.5h9.5V408.6z M132,389.6h-9.5v-9.5
			h9.5V389.6z M132,370.6h-9.5v-9.5h9.5V370.6z M132,351.6h-9.5v-9.5h9.5V351.6z M132,332.7h-9.5v-9.5h9.5V332.7z M132,313.7h-9.5
			v-9.5h9.5V313.7z M132,294.7h-9.5v-9.5h9.5V294.7z M132,275.8h-9.5v-9.5h9.5V275.8z M132,256.8h-9.5v-9.5h9.5V256.8z M132,237.8
			h-9.5v-9.5h9.5V237.8z M132,218.8h-9.5v-9.5h9.5V218.8z M132,199.9h-9.5v-9.5h9.5V199.9z M132,180.9h-9.5v-9.5h9.5V180.9z
			 M132,161.9h-9.5v-9.5h9.5V161.9z M132,143h-9.5v-9.5h9.5V143z M132,124h-9.5v-9.5h9.5V124z M132,105h-9.5v-9.5h9.5V105z
			 M132,86.1h-9.5v-9.5h9.5V86.1z M132,67.1h-9.5v-9.5h9.5V67.1z M132,48.1h-9.5v-9.5h9.5V48.1z M132,29.2h-9.5v-9.5h9.5V29.2z
			 M132,10.2h-9.5V0.7h9.5V10.2z"/>
	</g>
</g>
</svg>
